<?xml version='1.0' encoding='utf-8'?>
<svg xmlns="http://www.w3.org/2000/svg" width="26.000mm" height="22.670mm" viewBox="0 0 26.000000 22.670141">
  <metadata>FlipperPhunk Rev C.1 bottom-silkscreen derivative; alpha threshold 64, 0.25 mm close/open minimum feature, 0.05 mm contour simplification.</metadata>
  <path d="M 9.273269,0.948622 L 8.963515,1.142219 L 8.692480,1.490692 L 8.692480,2.671631 L 7.182427,4.142964 L 6.253165,5.188384 L 5.594937,6.117647 L 5.149665,7.027550 L 5.285182,7.104989 L 6.175726,6.795235 L 7.008191,6.640357 L 7.085629,6.795235 L 6.253165,8.034252 L 5.885331,8.808637 L 5.846612,9.060313 L 6.059568,9.157111 L 7.569620,8.692480 L 9.273269,8.440804 L 9.408786,8.673120 L 9.331348,8.847357 L 8.498883,9.079672 L 7.937453,9.447506 L 7.821296,9.641102 L 7.821296,9.892777 L 7.918094,10.086374 L 8.460164,10.512286 L 9.215190,10.802681 L 10.202532,11.015637 L 11.596426,11.151154 L 11.673864,11.344751 L 11.538347,11.615786 L 11.402829,11.712584 L 9.776620,11.693224 L 9.621742,11.809382 L 9.273269,12.351452 L 8.827997,12.448250 L 8.750558,12.370812 L 8.769918,11.886821 L 8.653760,11.635145 L 8.363366,11.422189 L 7.821296,11.364110 L 7.685778,11.267312 L 7.472822,10.473567 L 7.085629,9.912137 L 6.853313,9.776620 L 6.504840,9.718541 L 5.730454,10.086374 L 5.653016,10.008935 L 5.614296,9.621742 L 5.440060,9.157111 L 5.052867,8.576322 L 4.433358,8.072971 L 3.755771,7.840655 L 2.903946,7.879375 L 2.110201,8.208488 L 1.413254,8.827997 L 0.987342,9.621742 L 0.871184,10.551005 L 1.084140,11.538347 L 1.393894,12.080417 L 1.800447,12.467610 L 2.168280,12.661206 L 2.807148,12.758004 L 3.097543,13.009680 L 3.039464,13.222636 L 3.097543,14.364855 L 3.271780,14.906925 L 3.562174,15.139241 L 4.355920,15.177960 L 4.956069,15.991065 L 5.130305,16.068503 L 5.730454,16.029784 L 6.485480,16.765450 L 6.853313,16.804170 L 7.182427,16.707372 L 7.376024,16.862249 L 7.259866,17.075205 L 6.814594,17.075205 L 6.620998,17.172003 L 6.446761,17.384959 L 6.001489,17.481757 L 5.691735,17.888310 L 4.568876,18.469099 L 4.084885,19.049888 L 3.349218,19.746835 L 3.368578,19.998511 L 3.581534,20.521221 L 3.833209,20.734177 L 4.878630,21.063291 L 6.059568,21.237528 L 7.124348,21.256888 L 8.285927,20.966493 L 9.795979,20.424423 L 12.196575,20.230827 L 13.609829,19.882353 L 13.745346,19.979151 L 13.667908,20.346984 L 13.725987,20.869695 L 13.919583,21.237528 L 14.171258,21.508563 L 14.693969,21.818317 L 15.139241,21.973194 L 16.610573,22.186150 L 17.830231,22.166791 L 19.456441,21.973194 L 20.792256,21.547282 L 21.857036,21.024572 L 22.631422,20.405063 L 22.650782,18.778853 L 22.360387,18.527178 L 21.547282,18.139985 L 21.198809,17.810871 L 20.579300,17.443038 L 20.579300,17.365599 L 21.256888,16.765450 L 21.314966,16.455696 L 21.160089,16.126582 L 20.869695,15.778109 L 20.579300,15.720030 L 20.211467,15.836188 L 20.075949,15.739389 L 19.553239,14.906925 L 19.495160,14.558451 L 19.107967,14.035741 L 18.991809,13.300074 L 19.456441,12.990320 L 19.456441,12.816083 L 18.682055,11.131794 L 18.991809,10.183172 L 19.127327,10.086374 L 20.037230,10.763961 L 20.308265,10.783321 L 20.463142,10.705882 L 20.889054,10.105733 L 21.431124,8.847357 L 21.586001,8.847357 L 22.476545,9.350707 L 23.309010,9.641102 L 23.947878,9.757260 L 24.470588,9.757260 L 24.644825,9.679821 L 24.838421,9.389427 L 25.128816,8.382725 L 24.702904,8.092331 L 24.025316,7.898734 L 23.115413,7.782576 L 21.818317,7.782576 L 21.682800,7.685778 L 21.702159,7.027550 L 21.586001,6.892033 L 21.411765,6.892033 L 21.276247,6.795235 L 21.353686,6.427401 L 21.198809,5.865972 L 20.288905,3.387937 L 19.340283,1.723008 L 18.933730,1.258377 L 18.565897,1.026061 L 17.907669,0.774386 L 16.784810,0.503351 L 15.023083,0.232316 L 13.861504,0.154877 L 12.564408,0.193596 L 11.112435,0.387193 L 10.067014,0.638868 Z M 22.379747,18.953090 L 22.379747,20.172748 L 22.282949,20.346984 L 21.121370,21.082651 L 19.456441,21.682800 L 17.559196,21.895756 L 16.513775,21.895756 L 15.584512,21.779598 L 14.887565,21.586001 L 14.422934,21.334326 L 14.113179,21.024572 L 13.958302,20.676098 L 13.958302,20.269546 L 14.093820,20.172748 L 14.635890,20.869695 L 14.945644,21.043931 L 15.584512,21.218168 L 17.326880,21.295607 L 18.914371,21.082651 L 20.095309,20.753537 L 21.082651,20.288905 L 21.566642,19.940432 L 21.934475,19.533879 L 22.011914,19.204765 L 21.915115,18.817573 L 22.050633,18.720774 Z M 20.192107,18.778853 L 20.056590,18.953090 L 17.849590,19.204765 L 16.223380,19.688757 L 16.087863,19.591958 L 16.204021,19.379002 L 16.475056,19.224125 L 17.636634,18.895011 L 19.320923,18.662695 L 20.017870,18.662695 Z M 14.171258,18.643336 L 14.171258,18.759494 L 13.725987,19.437081 L 13.377513,19.650037 L 12.235294,19.921072 L 9.815339,20.095309 L 8.537602,20.579300 L 7.201787,20.966493 L 6.001489,20.947133 L 4.491437,20.656739 L 3.930007,20.443783 L 3.658972,19.940432 L 3.658972,19.824274 L 3.930007,19.611318 L 4.278481,19.921072 L 5.207744,20.114669 L 6.253165,20.211467 L 7.763217,20.192107 L 8.653760,19.979151 L 10.047655,19.417722 L 11.906180,19.301564 L 13.396873,19.049888 L 13.977662,18.430380 Z M 19.669397,18.275503 L 19.533879,18.449739 L 17.810871,18.623976 L 16.939687,18.817573 L 16.165302,19.088608 L 16.029784,18.991809 L 16.126582,18.817573 L 16.397617,18.643336 L 17.752792,18.217424 L 19.301564,18.139985 Z M 6.601638,17.830231 L 6.737156,17.733433 L 7.356664,18.062547 L 7.782576,18.507818 L 7.898734,18.817573 L 7.705138,18.895011 L 7.240506,18.372301 L 6.698436,18.004468 Z M 17.597915,17.868950 L 17.501117,18.043187 L 16.126582,18.507818 L 15.913626,18.430380 L 15.913626,18.352941 L 16.145942,18.159345 L 16.765450,17.849590 L 17.384959,17.694713 Z M 7.008191,17.443038 L 7.143708,17.346240 L 8.053611,17.733433 L 8.460164,18.081906 L 8.673120,18.488459 L 8.479523,18.565897 L 7.801936,17.965748 L 7.085629,17.597915 Z M 7.976173,17.210722 L 8.111690,17.113924 L 8.363366,17.113924 L 9.157111,17.346240 L 9.466865,17.636634 L 9.505585,17.985108 L 9.350707,18.101266 L 8.634401,17.597915 L 8.053611,17.365599 Z M 16.726731,16.397617 L 16.862249,16.571854 L 17.191363,17.404319 L 16.068503,17.927029 L 15.913626,17.927029 L 15.352197,17.191363 L 15.313477,16.997766 L 15.894267,16.629933 Z M 13.377513,18.604617 L 13.241996,18.817573 L 12.641847,18.933730 L 9.931497,19.146687 L 8.576322,19.708116 L 7.724497,19.921072 L 6.775875,19.959792 L 5.556217,19.882353 L 4.530156,19.708116 L 4.317200,19.533879 L 4.433358,19.107967 L 4.801191,18.701415 L 5.401340,18.352941 L 6.175726,18.062547 L 6.814594,18.352941 L 7.666418,19.224125 L 8.014892,19.127327 L 8.247208,18.798213 L 8.653760,18.856292 L 8.886076,18.662695 L 8.924795,18.352941 L 9.002234,18.275503 L 9.292628,18.372301 L 9.583023,18.294862 L 9.757260,18.081906 L 9.795979,17.733433 L 9.892777,17.636634 L 10.589724,17.481757 L 11.034996,17.249442 L 12.099777,16.107223 L 12.777364,16.610573 L 12.777364,16.688012 L 12.525689,16.900968 L 12.545048,17.075205 L 12.893522,17.268801 L 12.564408,17.927029 L 12.583768,18.352941 L 12.758004,18.469099 L 13.241996,18.507818 Z M 7.511541,16.455696 L 8.034252,16.204021 L 9.350707,16.087863 L 10.163812,16.629933 L 10.609084,17.036485 L 10.609084,17.113924 L 10.241251,17.307520 L 9.660462,17.404319 L 8.944155,16.978407 L 7.918094,16.842889 L 7.647059,16.668652 Z M 21.682800,19.340283 L 21.411765,19.688757 L 20.985853,20.017870 L 20.327625,20.366344 L 19.514520,20.656739 L 18.527178,20.889054 L 17.443038,21.024572 L 15.739389,20.966493 L 14.868206,20.676098 L 14.539092,20.288905 L 14.519732,19.766195 L 14.752048,19.127327 L 14.461653,18.411020 L 14.655249,18.159345 L 14.442293,18.043187 L 13.609829,17.868950 L 13.338794,17.907669 L 13.106478,18.178704 L 12.951601,18.159345 L 12.874162,18.004468 L 13.203276,17.404319 L 13.474311,17.133284 L 15.294118,17.617275 L 15.700670,18.101266 L 15.410276,18.565897 L 15.371556,18.778853 L 15.642591,19.030529 L 15.642591,19.301564 L 15.797468,19.475800 L 15.778109,19.862993 L 15.932986,20.017870 L 17.830231,19.475800 L 20.482502,19.185406 L 20.637379,19.088608 L 20.637379,18.972450 L 20.405063,18.604617 L 20.075949,18.352941 L 19.882353,18.062547 L 19.553239,17.927029 L 19.069248,17.443038 L 19.069248,17.346240 L 19.940432,16.339538 L 20.385704,16.107223 L 20.676098,16.049144 L 20.947133,16.339538 L 20.966493,16.494415 L 20.424423,16.688012 L 19.959792,17.210722 L 19.804914,17.520477 L 20.521221,17.791512 L 21.063291,18.120625 L 21.431124,18.546538 L 21.663440,19.069248 Z M 8.014892,15.681310 L 8.285927,14.984363 L 8.440804,14.868206 L 9.350707,15.042442 L 10.357409,15.448995 L 10.415488,15.313477 L 9.757260,14.848846 L 9.757260,14.771407 L 10.067014,14.539092 L 10.763961,14.984363 L 11.596426,15.216679 L 11.770663,15.352197 L 11.964259,15.274758 L 13.958302,15.468354 L 15.700670,15.410276 L 15.952345,15.700670 L 17.462398,14.713328 L 18.856292,15.545793 L 18.972450,15.526433 L 19.262844,15.236039 L 19.379002,15.236039 L 19.630678,15.565153 L 19.804914,16.049144 L 18.333582,17.733433 L 18.081906,17.868950 L 17.655994,17.481757 L 16.997766,16.126582 L 16.881608,16.049144 L 16.223380,16.204021 L 15.429635,16.533135 L 15.003723,16.881608 L 14.965004,17.055845 L 14.810127,17.152643 L 13.435592,16.804170 L 13.009680,16.339538 L 11.886821,15.545793 L 11.770663,15.623232 L 11.809382,15.855547 L 11.557707,16.262100 L 10.957558,16.900968 L 9.524944,15.816828 L 8.982874,15.778109 L 8.150410,15.894267 L 8.014892,15.797468 Z M 16.997766,12.854803 L 17.152643,12.854803 L 17.830231,13.241996 L 18.546538,13.358153 L 18.682055,13.454952 L 18.817573,14.171258 L 19.204765,14.713328 L 19.204765,14.829486 L 18.895011,15.177960 L 18.701415,15.139241 L 17.520477,14.384214 L 17.326880,14.384214 L 17.017126,14.597171 L 16.881608,14.500372 L 16.862249,13.396873 L 16.920328,12.932241 Z M 9.641102,12.641847 L 9.892777,12.758004 L 10.125093,12.990320 L 10.125093,13.087118 L 9.679821,13.513031 L 9.873418,14.248697 L 9.350707,14.635890 L 9.195830,14.519732 L 9.079672,14.171258 L 8.769918,13.803425 L 8.092331,13.551750 L 8.092331,13.261355 L 8.479523,12.932241 Z M 9.776620,12.312733 L 9.815339,12.138496 L 9.970216,12.022338 L 11.073716,12.022338 L 11.209233,12.119136 L 10.996277,12.486969 L 10.512286,12.854803 Z M 1.858526,12.002978 L 2.071482,11.925540 L 2.303797,12.080417 L 2.303797,12.177215 L 2.090841,12.254654 L 1.858526,12.080417 Z M 2.710350,11.635145 L 2.865227,11.731943 L 2.729710,11.906180 L 2.574832,11.809382 Z M 6.059568,11.286672 L 6.233805,11.306031 L 6.408042,11.480268 L 6.833954,12.119136 L 6.756515,12.603127 L 6.253165,12.970961 L 6.195086,13.106478 L 6.311243,13.183917 L 7.008191,12.835443 L 7.530901,13.009680 L 7.743857,13.183917 L 7.724497,13.919583 L 7.259866,14.384214 L 7.259866,14.461653 L 7.434103,14.519732 L 8.150410,13.977662 L 8.498883,14.035741 L 8.789278,14.384214 L 8.711839,14.558451 L 8.266567,14.558451 L 8.053611,14.732688 L 7.588980,15.971705 L 7.085629,16.397617 L 6.737156,16.494415 L 6.543559,16.416977 L 5.865972,15.681310 L 5.169025,15.720030 L 4.549516,14.829486 L 3.658972,14.810127 L 3.523455,14.674609 L 3.426657,14.287416 L 3.368578,13.319434 L 3.678332,12.835443 L 4.201042,12.293373 L 4.743112,11.886821 L 5.633656,11.422189 Z M 12.564408,11.189873 L 12.641847,11.267312 L 12.699926,11.712584 L 11.790022,12.119136 L 11.712584,11.944899 L 12.041698,11.286672 L 12.196575,11.170514 Z M 1.819806,11.170514 L 1.955324,11.170514 L 2.361876,11.499628 L 2.265078,11.731943 L 2.110201,11.712584 L 1.723008,11.422189 Z M 2.710350,11.267312 L 2.923306,11.093075 L 3.174981,11.228593 L 3.252420,11.383470 L 3.039464,11.518987 L 2.787789,11.422189 Z M 4.762472,10.938198 L 4.685034,11.093075 L 4.007446,11.422189 L 3.678332,11.770663 L 3.310499,12.351452 L 3.116902,12.274013 L 3.271780,11.828742 L 3.813850,11.209233 L 4.626955,10.841400 Z M 3.368578,10.531646 L 3.639613,10.667163 L 3.581534,10.725242 L 3.639613,10.976917 L 3.465376,11.112435 L 3.058824,10.880119 L 3.058824,10.783321 Z M 2.071482,10.396128 L 2.206999,10.396128 L 2.652271,10.860759 L 2.458675,11.189873 L 2.342517,11.189873 L 1.897245,10.822040 L 1.935964,10.589724 Z M 4.046165,10.221891 L 4.317200,10.415488 L 4.201042,10.492926 L 4.201042,10.628444 L 3.930007,10.802681 L 3.639613,10.647803 L 3.678332,10.376768 Z M 4.297841,10.396128 L 4.549516,10.183172 L 4.801191,10.299330 L 4.781832,10.473567 L 4.568876,10.589724 Z M 18.643336,10.144453 L 18.333582,11.306031 L 18.895011,12.351452 L 19.069248,12.835443 L 18.585257,13.048399 L 18.275503,13.048399 L 17.888310,12.932241 L 17.326880,12.622487 L 16.571854,11.906180 L 16.455696,11.906180 L 16.397617,12.061057 L 16.649293,12.564408 L 16.533135,13.513031 L 16.610573,14.887565 L 16.494415,14.984363 L 15.158600,15.158600 L 13.861504,15.158600 L 12.119136,15.003723 L 11.364110,14.848846 L 10.725242,14.616530 L 10.376768,14.345495 L 10.144453,13.977662 L 10.028295,13.590469 L 10.260611,13.396873 L 11.441549,12.680566 L 12.990320,11.983619 L 13.067759,11.906180 L 12.990320,11.247952 L 13.067759,11.170514 L 14.790767,11.015637 L 15.991065,10.822040 L 17.249442,10.512286 L 18.507818,10.047655 Z M 15.661951,12.312733 L 15.294118,12.022338 L 14.674609,11.906180 L 14.016381,11.964259 L 13.435592,12.138496 L 12.738645,12.506329 L 12.235294,12.951601 L 11.964259,13.396873 L 11.964259,13.861504 L 12.254654,14.151899 L 12.835443,14.306776 L 13.551750,14.268057 L 14.229337,14.074460 L 14.926284,13.687267 L 15.468354,13.183917 L 15.700670,12.758004 Z M 13.454952,12.622487 L 13.532390,12.699926 L 13.803425,13.803425 L 13.358153,13.958302 L 12.893522,13.958302 L 12.564408,13.842144 L 12.390171,13.609829 L 12.506329,13.261355 L 12.951601,12.835443 L 13.300074,12.622487 Z M 15.100521,12.390171 L 15.255398,12.564408 L 15.158600,12.932241 L 14.713328,13.396873 L 14.403574,13.609829 L 14.209978,13.648548 L 14.113179,13.513031 L 13.822785,12.448250 L 14.326136,12.274013 L 14.752048,12.274013 Z M 6.175726,10.221891 L 6.543559,10.047655 L 6.833954,10.144453 L 7.124348,10.531646 L 7.434103,11.596426 L 7.569620,11.693224 L 8.131050,11.712584 L 8.402085,11.886821 L 8.382725,12.312733 L 8.014892,12.796724 L 7.860015,12.796724 L 7.124348,12.467610 L 7.143708,12.002978 L 6.466121,11.073716 L 6.253165,10.957558 L 5.788533,11.054356 L 5.633656,10.938198 L 5.633656,10.725242 Z M 1.819806,9.854058 L 1.974684,9.970216 L 1.974684,10.067014 L 1.819806,10.357409 L 1.684289,10.454207 L 1.548771,10.357409 L 1.664929,9.950856 Z M 4.743112,9.234550 L 4.839911,9.795979 L 4.762472,9.950856 L 4.491437,9.950856 L 4.239762,9.776620 L 4.026806,9.989576 L 3.600894,10.125093 L 3.329859,10.028295 L 3.291139,10.279970 L 2.884587,10.647803 L 2.749069,10.647803 L 2.284438,10.105733 L 2.323157,9.950856 L 2.652271,9.602383 L 2.845867,9.486225 L 3.116902,9.602383 L 3.174981,9.544304 L 3.136262,9.311988 L 3.446016,9.137751 L 3.755771,9.060313 L 4.046165,9.331348 L 4.317200,9.040953 L 4.626955,9.118392 Z M 2.729710,8.982874 L 2.749069,9.234550 L 2.226359,9.718541 L 2.110201,9.718541 L 1.955324,9.486225 L 2.090841,9.215190 L 2.419955,8.886076 Z M 3.639613,8.673120 L 3.562174,8.866716 L 3.078183,9.060313 L 2.768429,8.963515 L 2.749069,8.692480 L 2.981385,8.537602 L 3.349218,8.440804 Z M 3.775130,8.460164 L 3.910648,8.363366 L 4.259121,8.421445 L 4.472077,8.731199 L 4.336560,8.827997 L 3.988086,8.789278 L 3.775130,8.595681 Z M 21.547282,8.247208 L 21.702159,8.111690 L 23.425168,8.169769 L 24.567386,8.421445 L 24.722264,8.615041 L 24.451229,9.311988 L 24.315711,9.408786 L 23.947878,9.389427 L 23.154133,9.215190 L 22.360387,8.905436 L 21.624721,8.479523 Z M 15.874907,7.569620 L 16.029784,7.472822 L 19.049888,8.479523 L 19.224125,8.595681 L 19.224125,8.673120 L 18.682055,9.486225 L 18.507818,9.602383 L 17.539836,8.537602 L 17.423678,8.537602 L 17.210722,8.866716 L 17.075205,8.866716 L 15.874907,7.647059 Z M 21.256888,7.395383 L 21.334326,7.472822 L 21.314966,7.724497 L 20.908414,9.215190 L 20.482502,10.144453 L 20.250186,10.434847 L 20.114669,10.434847 L 19.533879,9.970216 L 19.107967,9.524944 L 19.107967,9.428146 L 19.301564,9.176471 L 19.630678,9.253909 L 19.688757,9.195830 L 19.650037,8.963515 L 20.037230,8.731199 L 20.211467,8.711839 L 20.346984,8.924795 L 20.463142,8.924795 L 20.598660,8.421445 L 20.463142,8.344006 L 20.037230,8.518243 L 19.901713,8.344006 L 20.753537,7.627699 L 21.121370,7.395383 Z M 19.708116,9.370067 L 19.650037,9.505585 L 19.959792,9.912137 L 20.095309,9.912137 L 20.308265,9.428146 L 20.192107,9.350707 L 19.979151,9.486225 Z M 8.169769,9.718541 L 8.363366,9.524944 L 8.808637,9.311988 L 9.815339,9.099032 L 9.873418,8.963515 L 9.486225,7.685778 L 9.989576,7.395383 L 10.860759,7.124348 L 10.996277,7.221147 L 10.976917,7.860015 L 11.112435,8.518243 L 11.402829,9.176471 L 11.596426,9.350707 L 11.809382,9.350707 L 11.925540,9.234550 L 12.119136,8.324646 L 12.254654,8.227848 L 12.970961,8.789278 L 13.571109,8.382725 L 13.725987,8.363366 L 13.822785,8.460164 L 13.880864,8.827997 L 14.055101,9.234550 L 14.229337,9.389427 L 14.461653,9.389427 L 14.655249,9.157111 L 15.119881,7.705138 L 15.294118,7.530901 L 17.172003,9.370067 L 17.326880,9.370067 L 17.520477,9.118392 L 17.636634,9.118392 L 18.139985,9.699181 L 18.139985,9.795979 L 18.043187,9.892777 L 17.172003,10.202532 L 15.526433,10.589724 L 13.745346,10.802681 L 11.886821,10.841400 L 10.609084,10.744602 L 9.273269,10.473567 L 8.382725,10.067014 L 8.189129,9.873418 Z M 16.552494,9.099032 L 16.378258,9.002234 L 16.010424,9.002234 L 15.100521,9.137751 L 15.003723,9.215190 L 15.100521,9.408786 L 15.003723,9.583023 L 14.364855,9.912137 L 13.454952,10.105733 L 13.396873,10.241251 L 13.513031,10.318690 L 14.093820,10.338049 L 15.855547,10.241251 L 16.339538,9.563663 Z M 16.029784,9.389427 L 15.932986,9.641102 L 15.642591,10.008935 L 15.255398,10.047655 L 15.119881,9.950856 L 15.119881,9.873418 L 15.720030,9.311988 L 15.894267,9.292628 Z M 11.790022,6.969471 L 12.990320,6.872673 L 13.125838,6.969471 L 13.009680,8.072971 L 13.145197,8.208488 L 13.067759,8.363366 L 12.932241,8.363366 L 11.712584,7.124348 Z M 13.280715,2.400596 L 13.609829,3.871929 L 14.113179,5.285182 L 14.810127,6.833954 L 14.732688,6.988831 L 13.551750,7.608340 L 13.416232,7.511541 L 13.513031,6.775875 L 13.454952,6.562919 L 12.854803,6.543559 L 11.344751,6.679077 L 9.718541,4.568876 L 9.602383,4.646314 L 9.718541,4.994788 L 10.763961,6.756515 L 9.137751,7.453462 L 9.060313,7.530901 L 9.157111,7.898734 L 9.079672,8.092331 L 7.511541,8.363366 L 6.582278,8.634401 L 6.427401,8.537602 L 6.853313,7.685778 L 7.918094,6.253165 L 7.801936,6.175726 L 7.240506,6.214445 L 6.020849,6.504840 L 5.885331,6.330603 L 6.911392,4.936709 L 8.421445,3.426657 L 8.963515,3.000745 L 12.119136,4.084885 L 12.235294,4.007446 L 12.448250,2.942666 L 13.087118,2.323157 Z M 18.643336,1.703649 L 18.759494,1.723008 L 19.049888,2.071482 L 19.727476,3.194341 L 20.327625,4.549516 L 20.947133,6.408042 L 20.947133,6.543559 L 20.579300,7.317945 L 19.475800,8.247208 L 16.629933,7.317945 L 16.475056,7.066270 L 16.184661,7.182427 L 15.661951,6.969471 L 15.739389,6.814594 L 16.281459,6.485480 L 16.436337,6.582278 L 16.416977,6.775875 L 16.591214,6.833954 L 16.804170,6.156366 L 18.585257,4.839911 L 18.585257,4.762472 L 18.449739,4.685034 L 17.288161,5.343261 L 17.075205,5.265823 L 17.830231,2.768429 L 18.256143,1.994043 Z M 9.195830,1.529412 L 9.757260,1.180938 L 10.667163,0.909903 L 12.022338,0.677587 L 12.990320,0.600149 L 14.616530,0.638868 L 16.184661,0.832465 L 17.772152,1.180938 L 18.236783,1.335815 L 18.372301,1.451973 L 17.830231,2.110201 L 17.501117,2.768429 L 16.978407,4.394639 L 16.668652,5.711095 L 15.255398,6.659717 L 15.081162,6.562919 L 14.326136,4.801191 L 13.822785,3.233060 L 13.551750,1.761727 L 13.474311,1.684289 L 13.222636,1.761727 L 12.215934,2.690990 L 12.099777,2.903946 L 11.983619,3.504095 L 11.828742,3.600894 L 9.234550,2.729710 L 9.137751,2.574832 Z" fill="#000000" fill-rule="evenodd" />
</svg>